<?xml version="1.0" encoding="UTF-8" standalone="no"?>
<!-- Created with Inkscape (http://www.inkscape.org/) -->

<svg
   xmlns:dc="http://purl.org/dc/elements/1.1/"
   xmlns:cc="http://creativecommons.org/ns#"
   xmlns:rdf="http://www.w3.org/1999/02/22-rdf-syntax-ns#"
   xmlns:svg="http://www.w3.org/2000/svg"
   xmlns="http://www.w3.org/2000/svg"
   xmlns:sodipodi="http://sodipodi.sourceforge.net/DTD/sodipodi-0.dtd"
   xmlns:inkscape="http://www.inkscape.org/namespaces/inkscape"
   width="800"
   height="800"
   id="svg2"
   version="1.1"
   inkscape:version="0.48.4 r9939"
   sodipodi:docname="ktom_cubes_blue.svg">
  <defs
     id="defs4">
    <clipPath
       id="clipPath3001"
       clipPathUnits="userSpaceOnUse">
      <path
         id="path3003"
         d="m 0,0 14670,0 0,7785.85 -14670,0 L 0,0 z"
         inkscape:connector-curvature="0" />
    </clipPath>
    <clipPath
       id="clipPath3102"
       clipPathUnits="userSpaceOnUse">
      <path
         id="path3104"
         d="m 0,0 14670,0 0,7785.85 -14670,0 L 0,0 z"
         inkscape:connector-curvature="0" />
    </clipPath>
    <clipPath
       id="clipPath3950"
       clipPathUnits="userSpaceOnUse">
      <path
         id="path3952"
         d="m 0,0 14670,0 0,7785.85 -14670,0 L 0,0 z"
         inkscape:connector-curvature="0" />
    </clipPath>
    <clipPath
       id="clipPath4051"
       clipPathUnits="userSpaceOnUse">
      <path
         id="path4053"
         d="m 0,0 14670,0 0,7785.85 -14670,0 L 0,0 z"
         inkscape:connector-curvature="0" />
    </clipPath>
    <clipPath
       id="clipPath4131"
       clipPathUnits="userSpaceOnUse">
      <path
         id="path4133"
         d="m 0,0 14670,0 0,7785.85 -14670,0 L 0,0 z"
         inkscape:connector-curvature="0" />
    </clipPath>
    <clipPath
       id="clipPath4211"
       clipPathUnits="userSpaceOnUse">
      <path
         id="path4213"
         d="m 0,0 14670,0 0,7785.85 -14670,0 L 0,0 z"
         inkscape:connector-curvature="0" />
    </clipPath>
    <clipPath
       id="clipPath4291"
       clipPathUnits="userSpaceOnUse">
      <path
         id="path4293"
         d="m 0,0 14670,0 0,7785.85 -14670,0 L 0,0 z"
         inkscape:connector-curvature="0" />
    </clipPath>
    <clipPath
       id="clipPath4371"
       clipPathUnits="userSpaceOnUse">
      <path
         id="path4373"
         d="m 0,0 14670,0 0,7785.85 -14670,0 L 0,0 z"
         inkscape:connector-curvature="0" />
    </clipPath>
    <clipPath
       id="clipPath4451"
       clipPathUnits="userSpaceOnUse">
      <path
         id="path4453"
         d="m 0,0 14670,0 0,7785.85 -14670,0 L 0,0 z"
         inkscape:connector-curvature="0" />
    </clipPath>
    <clipPath
       id="clipPath4528"
       clipPathUnits="userSpaceOnUse">
      <path
         id="path4530"
         d="m 0,0 14670,0 0,7785.85 -14670,0 L 0,0 z"
         inkscape:connector-curvature="0" />
    </clipPath>
    <clipPath
       id="clipPath4624"
       clipPathUnits="userSpaceOnUse">
      <path
         id="path4626"
         d="m 0,0 14670,0 0,7785.85 -14670,0 L 0,0 z"
         inkscape:connector-curvature="0" />
    </clipPath>
  </defs>
  <sodipodi:namedview
     id="base"
     pagecolor="#ffffff"
     bordercolor="#666666"
     borderopacity="1.0"
     inkscape:pageopacity="0.0"
     inkscape:pageshadow="2"
     inkscape:zoom="0.24748738"
     inkscape:cx="1666.5606"
     inkscape:cy="316.39827"
     inkscape:document-units="px"
     inkscape:current-layer="layer1"
     showgrid="true"
     inkscape:window-width="1280"
     inkscape:window-height="751"
     inkscape:window-x="0"
     inkscape:window-y="0"
     inkscape:window-maximized="0"
     showguides="true">
    <inkscape:grid
       type="xygrid"
       id="grid3509"
       empspacing="5"
       visible="true"
       enabled="true"
       snapvisiblegridlinesonly="true" />
  </sodipodi:namedview>
  <metadata
     id="metadata7">
    <rdf:RDF>
      <cc:Work
         rdf:about="">
        <dc:format>image/svg+xml</dc:format>
        <dc:type
           rdf:resource="http://purl.org/dc/dcmitype/StillImage" />
        <dc:title />
      </cc:Work>
    </rdf:RDF>
  </metadata>
  <g
     inkscape:label="Layer 1"
     inkscape:groupmode="layer"
     id="layer1"
     transform="translate(0,-252.36218)">
    <path
       id="path4469"
       d="M 399.99989,309.5036 100,482.74632 100,829.11955 399.99989,1002.3622 700,829.11955 700,482.74632 399.99989,309.5036 z m 0,99.01191 171.45257,98.95573 -171.45257,98.95591 -171.45235,-98.95591 171.45235,-98.95573 z m -214.30168,173.18651 171.45257,98.9559 0,197.96749 -171.45257,-98.9558 0,-197.96759 z m 428.60358,0 0,197.96759 -171.45257,98.9558 0,-197.96749 171.45257,-98.9559 z"
       style="fill:#337fff;fill-opacity:1;fill-rule:nonzero;stroke:none"
       inkscape:connector-curvature="0" />
  </g>
</svg>
