<?xml version="1.0" encoding="UTF-8" standalone="no"?>
<!-- Created with Inkscape (http://www.inkscape.org/) -->

<svg
   xmlns:dc="http://purl.org/dc/elements/1.1/"
   xmlns:cc="http://creativecommons.org/ns#"
   xmlns:rdf="http://www.w3.org/1999/02/22-rdf-syntax-ns#"
   xmlns:svg="http://www.w3.org/2000/svg"
   xmlns="http://www.w3.org/2000/svg"
   xmlns:sodipodi="http://sodipodi.sourceforge.net/DTD/sodipodi-0.dtd"
   xmlns:inkscape="http://www.inkscape.org/namespaces/inkscape"
   width="800"
   height="800"
   id="svg2"
   version="1.1"
   inkscape:version="0.48.4 r9939"
   sodipodi:docname="ktom_cubes_green.svg">
  <defs
     id="defs4">
    <clipPath
       id="clipPath3001"
       clipPathUnits="userSpaceOnUse">
      <path
         id="path3003"
         d="m 0,0 14670,0 0,7785.85 -14670,0 L 0,0 z"
         inkscape:connector-curvature="0" />
    </clipPath>
    <clipPath
       id="clipPath3102"
       clipPathUnits="userSpaceOnUse">
      <path
         id="path3104"
         d="m 0,0 14670,0 0,7785.85 -14670,0 L 0,0 z"
         inkscape:connector-curvature="0" />
    </clipPath>
    <clipPath
       id="clipPath3950"
       clipPathUnits="userSpaceOnUse">
      <path
         id="path3952"
         d="m 0,0 14670,0 0,7785.85 -14670,0 L 0,0 z"
         inkscape:connector-curvature="0" />
    </clipPath>
    <clipPath
       id="clipPath4051"
       clipPathUnits="userSpaceOnUse">
      <path
         id="path4053"
         d="m 0,0 14670,0 0,7785.85 -14670,0 L 0,0 z"
         inkscape:connector-curvature="0" />
    </clipPath>
    <clipPath
       id="clipPath4131"
       clipPathUnits="userSpaceOnUse">
      <path
         id="path4133"
         d="m 0,0 14670,0 0,7785.85 -14670,0 L 0,0 z"
         inkscape:connector-curvature="0" />
    </clipPath>
    <clipPath
       id="clipPath4211"
       clipPathUnits="userSpaceOnUse">
      <path
         id="path4213"
         d="m 0,0 14670,0 0,7785.85 -14670,0 L 0,0 z"
         inkscape:connector-curvature="0" />
    </clipPath>
    <clipPath
       id="clipPath4291"
       clipPathUnits="userSpaceOnUse">
      <path
         id="path4293"
         d="m 0,0 14670,0 0,7785.85 -14670,0 L 0,0 z"
         inkscape:connector-curvature="0" />
    </clipPath>
    <clipPath
       id="clipPath4371"
       clipPathUnits="userSpaceOnUse">
      <path
         id="path4373"
         d="m 0,0 14670,0 0,7785.85 -14670,0 L 0,0 z"
         inkscape:connector-curvature="0" />
    </clipPath>
    <clipPath
       id="clipPath4451"
       clipPathUnits="userSpaceOnUse">
      <path
         id="path4453"
         d="m 0,0 14670,0 0,7785.85 -14670,0 L 0,0 z"
         inkscape:connector-curvature="0" />
    </clipPath>
    <clipPath
       id="clipPath4528"
       clipPathUnits="userSpaceOnUse">
      <path
         id="path4530"
         d="m 0,0 14670,0 0,7785.85 -14670,0 L 0,0 z"
         inkscape:connector-curvature="0" />
    </clipPath>
    <clipPath
       id="clipPath4624"
       clipPathUnits="userSpaceOnUse">
      <path
         id="path4626"
         d="m 0,0 14670,0 0,7785.85 -14670,0 L 0,0 z"
         inkscape:connector-curvature="0" />
    </clipPath>
  </defs>
  <sodipodi:namedview
     id="base"
     pagecolor="#ffffff"
     bordercolor="#666666"
     borderopacity="1.0"
     inkscape:pageopacity="0.0"
     inkscape:pageshadow="2"
     inkscape:zoom="0.5"
     inkscape:cx="706.6337"
     inkscape:cy="371.67642"
     inkscape:document-units="px"
     inkscape:current-layer="layer1"
     showgrid="true"
     inkscape:window-width="1280"
     inkscape:window-height="751"
     inkscape:window-x="0"
     inkscape:window-y="0"
     inkscape:window-maximized="0"
     showguides="true"
     showborder="true">
    <inkscape:grid
       type="xygrid"
       id="grid3509"
       empspacing="5"
       visible="true"
       enabled="true"
       snapvisiblegridlinesonly="true" />
  </sodipodi:namedview>
  <metadata
     id="metadata7">
    <rdf:RDF>
      <cc:Work
         rdf:about="">
        <dc:format>image/svg+xml</dc:format>
        <dc:type
           rdf:resource="http://purl.org/dc/dcmitype/StillImage" />
        <dc:title />
      </cc:Work>
    </rdf:RDF>
  </metadata>
  <g
     inkscape:label="Layer 1"
     inkscape:groupmode="layer"
     id="layer1"
     transform="translate(0,-252.36218)">
    <path
       id="path4467"
       d="M 400.0281,309.56827 100,482.79483 l 0,346.34094 300.0281,173.22643 299.97183,-173.22643 0,-346.34094 L 400.0281,309.56827 z m 0,99.0025 171.38053,98.94668 L 400.0281,606.46392 228.59151,507.51745 400.0281,408.57077 z m -214.28169,173.17053 171.3806,98.94668 0,197.94903 -171.3806,-98.94657 0,-197.94914 z m 428.50731,0 0,197.94914 -171.38052,98.94657 0,-197.94903 171.38052,-98.94668 z"
       style="fill:#33b24c;fill-opacity:1;fill-rule:nonzero;stroke:none"
       inkscape:connector-curvature="0" />
    <flowRoot
       transform="translate(-5.4055399e-6,5.494696e-5)"
       style="font-size:40px;font-style:normal;font-variant:normal;font-weight:normal;font-stretch:normal;line-height:125%;letter-spacing:0px;word-spacing:0px;fill:#000000;fill-opacity:1;stroke:none;font-family:Brandon Grotesque Bold;-inkscape-font-specification:'Brandon Grotesque Bold, '"
       id="flowRoot3493"
       xml:space="preserve"><flowRegion
         id="flowRegion3495"><rect
           style="font-style:normal;font-variant:normal;font-weight:normal;font-stretch:normal;font-family:Brandon Grotesque Bold;-inkscape-font-specification:'Brandon Grotesque Bold, '"
           y="312.36218"
           x="1211.4286"
           height="300"
           width="417.14285"
           id="rect3497" /></flowRegion><flowPara
         id="flowPara3499" /></flowRoot>    <text
       sodipodi:linespacing="125%"
       id="text3501"
       y="572.36218"
       x="1237.1429"
       style="font-size:500px;font-style:normal;font-weight:normal;line-height:125%;letter-spacing:0px;word-spacing:0px;fill:#000000;fill-opacity:1;stroke:none;font-family:sans-serif"
       xml:space="preserve"><tspan
         style="font-size:1620px;font-style:normal;font-variant:normal;font-weight:bold;font-stretch:normal;font-family:Brandon Grotesque;-inkscape-font-specification:Brandon Grotesque Bold"
         y="572.36218"
         x="1237.1429"
         id="tspan3503"
         sodipodi:role="line" /></text>
  </g>
</svg>
