<?xml version="1.0" encoding="UTF-8" standalone="no"?>
<!-- Created with Inkscape (http://www.inkscape.org/) -->

<svg
   xmlns:dc="http://purl.org/dc/elements/1.1/"
   xmlns:cc="http://creativecommons.org/ns#"
   xmlns:rdf="http://www.w3.org/1999/02/22-rdf-syntax-ns#"
   xmlns:svg="http://www.w3.org/2000/svg"
   xmlns="http://www.w3.org/2000/svg"
   xmlns:sodipodi="http://sodipodi.sourceforge.net/DTD/sodipodi-0.dtd"
   xmlns:inkscape="http://www.inkscape.org/namespaces/inkscape"
   width="800"
   height="800"
   id="svg2"
   version="1.1"
   inkscape:version="0.48.4 r9939"
   sodipodi:docname="ktom_cubes_yellow.svg">
  <defs
     id="defs4">
    <clipPath
       id="clipPath3001"
       clipPathUnits="userSpaceOnUse">
      <path
         id="path3003"
         d="m 0,0 14670,0 0,7785.85 -14670,0 L 0,0 z"
         inkscape:connector-curvature="0" />
    </clipPath>
    <clipPath
       id="clipPath3102"
       clipPathUnits="userSpaceOnUse">
      <path
         id="path3104"
         d="m 0,0 14670,0 0,7785.85 -14670,0 L 0,0 z"
         inkscape:connector-curvature="0" />
    </clipPath>
    <clipPath
       id="clipPath3950"
       clipPathUnits="userSpaceOnUse">
      <path
         id="path3952"
         d="m 0,0 14670,0 0,7785.85 -14670,0 L 0,0 z"
         inkscape:connector-curvature="0" />
    </clipPath>
    <clipPath
       id="clipPath4051"
       clipPathUnits="userSpaceOnUse">
      <path
         id="path4053"
         d="m 0,0 14670,0 0,7785.85 -14670,0 L 0,0 z"
         inkscape:connector-curvature="0" />
    </clipPath>
    <clipPath
       id="clipPath4131"
       clipPathUnits="userSpaceOnUse">
      <path
         id="path4133"
         d="m 0,0 14670,0 0,7785.85 -14670,0 L 0,0 z"
         inkscape:connector-curvature="0" />
    </clipPath>
    <clipPath
       id="clipPath4211"
       clipPathUnits="userSpaceOnUse">
      <path
         id="path4213"
         d="m 0,0 14670,0 0,7785.85 -14670,0 L 0,0 z"
         inkscape:connector-curvature="0" />
    </clipPath>
    <clipPath
       id="clipPath4291"
       clipPathUnits="userSpaceOnUse">
      <path
         id="path4293"
         d="m 0,0 14670,0 0,7785.85 -14670,0 L 0,0 z"
         inkscape:connector-curvature="0" />
    </clipPath>
    <clipPath
       id="clipPath4371"
       clipPathUnits="userSpaceOnUse">
      <path
         id="path4373"
         d="m 0,0 14670,0 0,7785.85 -14670,0 L 0,0 z"
         inkscape:connector-curvature="0" />
    </clipPath>
    <clipPath
       id="clipPath4451"
       clipPathUnits="userSpaceOnUse">
      <path
         id="path4453"
         d="m 0,0 14670,0 0,7785.85 -14670,0 L 0,0 z"
         inkscape:connector-curvature="0" />
    </clipPath>
    <clipPath
       id="clipPath4528"
       clipPathUnits="userSpaceOnUse">
      <path
         id="path4530"
         d="m 0,0 14670,0 0,7785.85 -14670,0 L 0,0 z"
         inkscape:connector-curvature="0" />
    </clipPath>
    <clipPath
       id="clipPath4624"
       clipPathUnits="userSpaceOnUse">
      <path
         id="path4626"
         d="m 0,0 14670,0 0,7785.85 -14670,0 L 0,0 z"
         inkscape:connector-curvature="0" />
    </clipPath>
  </defs>
  <sodipodi:namedview
     id="base"
     pagecolor="#ffffff"
     bordercolor="#666666"
     borderopacity="1.0"
     inkscape:pageopacity="0.0"
     inkscape:pageshadow="2"
     inkscape:zoom="0.49497476"
     inkscape:cx="246.98316"
     inkscape:cy="355.99159"
     inkscape:document-units="px"
     inkscape:current-layer="layer1"
     showgrid="true"
     inkscape:window-width="1280"
     inkscape:window-height="751"
     inkscape:window-x="0"
     inkscape:window-y="0"
     inkscape:window-maximized="0"
     showguides="true">
    <inkscape:grid
       type="xygrid"
       id="grid3509"
       empspacing="5"
       visible="true"
       enabled="true"
       snapvisiblegridlinesonly="true" />
  </sodipodi:namedview>
  <metadata
     id="metadata7">
    <rdf:RDF>
      <cc:Work
         rdf:about="">
        <dc:format>image/svg+xml</dc:format>
        <dc:type
           rdf:resource="http://purl.org/dc/dcmitype/StillImage" />
        <dc:title />
      </cc:Work>
    </rdf:RDF>
  </metadata>
  <g
     inkscape:label="Layer 1"
     inkscape:groupmode="layer"
     id="layer1"
     transform="translate(0,-252.36218)">
    <g
       transform="matrix(1.8129274,0,0,-1.8129274,-1365.5843,1943.0224)"
       inkscape:label="ink_ext_XXXXXX"
       id="g4443">
      <flowRoot
         xml:space="preserve"
         id="flowRoot3493"
         style="font-size:40px;font-style:normal;font-variant:normal;font-weight:normal;font-stretch:normal;line-height:125%;letter-spacing:0px;word-spacing:0px;fill:#000000;fill-opacity:1;stroke:none;font-family:Brandon Grotesque Bold;-inkscape-font-specification:'Brandon Grotesque Bold, '"
         transform="matrix(0.55159407,0,0,-0.55159407,780.8279,1071.7596)"><flowRegion
           id="flowRegion3495"><rect
             id="rect3497"
             width="417.14285"
             height="300"
             x="1211.4286"
             y="312.36218"
             style="font-style:normal;font-variant:normal;font-weight:normal;font-stretch:normal;font-family:Brandon Grotesque Bold;-inkscape-font-specification:'Brandon Grotesque Bold, '" /></flowRegion><flowPara
           id="flowPara3499" /></flowRoot>      <text
         xml:space="preserve"
         style="font-size:275.79702759px;font-style:normal;font-weight:normal;line-height:125%;letter-spacing:0px;word-spacing:0px;fill:#000000;fill-opacity:1;stroke:none;font-family:sans-serif"
         x="1463.2286"
         y="-756.04803"
         id="text3501"
         sodipodi:linespacing="125%"
         transform="scale(1,-1)"><tspan
           sodipodi:role="line"
           id="tspan3503"
           x="1463.2286"
           y="-756.04803"
           style="font-size:893.58239746px;font-style:normal;font-variant:normal;font-weight:bold;font-stretch:normal;font-family:Brandon Grotesque;-inkscape-font-specification:Brandon Grotesque Bold" /></text>
      <path
         style="fill:#ffb200;fill-opacity:1"
         d="m 890.53683,566.23021 -81.49674,47.24369 -0.31635,95.05319 -0.31613,95.05309 82.73909,47.76755 82.7391,47.76755 82.7392,-47.76755 82.7391,-47.76755 -0.3163,-95.05209 -0.3163,-95.05211 -81.9929,-47.36848 c -45.0961,-26.05267 -82.60327,-47.3128 -83.34899,-47.24474 -0.74583,0.068 -38.02955,21.3834 -82.85278,47.36745 z m 59.86171,74.44527 -0.0266,55.25728 -46.70803,26.85695 c -25.68951,14.77121 -47.07635,26.85684 -47.52644,26.85684 -0.45009,0 -0.67369,-24.79963 -0.49685,-55.11027 l 0.32134,-55.11018 46.30503,-26.8927 c 25.46768,-14.791 46.72177,-26.94277 47.23114,-27.00396 0.50937,-0.0613 0.91425,24.75454 0.89996,55.14604 z m 94.66086,-28.252 46.7498,27.00528 0.3214,55.10885 c 0.1767,30.30997 -0.048,55.10894 -0.4969,55.10894 -0.45,0 -21.8369,-12.08563 -47.5264,-26.85684 l -46.70803,-26.85695 -0.027,-55.25728 c -0.014,-30.3915 0.1904,-55.25729 0.4551,-55.25729 0.2648,0 21.51873,12.15239 47.23103,27.00529 l 0,0 z m -22.4504,150.8059 c 25.4498,14.60146 46.2912,26.86438 46.3144,27.25075 0.023,0.38649 -21.3504,13.04908 -47.4968,28.13897 l -47.53881,27.43636 -47.54073,-27.45109 c -26.14746,-15.0982 -47.51779,-27.76079 -47.48976,-28.13908 0.10859,-1.46884 93.29938,-54.31359 95.32789,-54.05663 1.18329,0.14992 22.97398,12.21915 48.42381,26.82072 l 0,0 z"
         id="path3049"
         inkscape:connector-curvature="0" />
    </g>
  </g>
</svg>
