<?xml version="1.0" standalone="no"?>
<!DOCTYPE svg PUBLIC "-//W3C//DTD SVG 20010904//EN"
 "http://www.w3.org/TR/2001/REC-SVG-20010904/DTD/svg10.dtd">
<svg version="1.0" xmlns="http://www.w3.org/2000/svg"
 width="260.000000pt" height="260.000000pt" viewBox="0 0 260.000000 260.000000"
 preserveAspectRatio="xMidYMid meet">
<metadata>
Created by potrace 1.11, written by Peter Selinger 2001-2013
</metadata>
<g transform="translate(0.000000,260.000000) scale(0.100000,-0.100000)"
fill="#000000" stroke="none">
<path d="M1202 2379 c-57 -32 -108 -59 -113 -59 -5 0 -9 -4 -9 -9 0 -5 -6 -11
-12 -13 -7 -2 -68 -34 -135 -73 l-123 -70 1 -79 c1 -43 -3 -82 -8 -86 -4 -5
-98 -60 -208 -123 l-200 -115 -5 -248 c-3 -137 -7 -250 -8 -251 -1 -1 -32 -18
-69 -38 l-68 -37 1 -284 0 -285 55 -32 c49 -30 261 -153 374 -217 24 -14 47
-28 51 -32 4 -4 41 11 83 33 l76 41 125 -73 c69 -39 138 -79 155 -88 16 -9 32
-18 35 -21 3 -3 29 -18 58 -33 36 -20 57 -26 65 -19 11 9 220 130 327 190 25
14 52 30 61 35 13 8 33 0 87 -30 l70 -41 198 114 c108 63 199 114 201 114 5 0
87 54 93 61 3 4 5 132 5 285 l-1 278 -71 43 -71 43 0 242 1 243 -59 36 c-32
19 -81 48 -109 63 -169 95 -255 149 -256 164 0 10 0 45 0 79 0 40 -5 65 -13
72 -12 10 -79 49 -351 206 -22 12 -60 34 -85 48 l-45 26 -103 -60z m253 -189
c85 -46 125 -74 118 -81 -5 -5 -67 -42 -138 -83 l-130 -75 -45 26 c-25 14 -87
50 -138 80 -109 64 -117 47 66 152 l117 67 60 -34 c33 -20 74 -43 90 -52z
m-420 -245 c28 -17 84 -51 125 -74 l75 -42 -1 -154 c0 -85 -3 -157 -6 -161 -4
-3 -66 30 -140 73 l-133 79 -2 162 c-2 182 -8 173 82 117z m622 -122 l-1 -158
-134 -77 c-73 -43 -137 -78 -140 -78 -6 0 -8 270 -3 317 0 6 11 15 23 19 12 3
45 22 74 40 29 19 55 34 58 34 3 0 29 15 58 34 29 19 56 32 59 30 4 -2 6 -75
6 -161z m-844 -120 l-2 -118 207 -120 c114 -66 226 -130 248 -142 l42 -22 134
77 c73 43 183 107 244 142 l112 64 0 114 c0 62 2 116 5 119 5 5 87 -38 159
-84 21 -12 40 -23 43 -23 3 0 21 -10 40 -22 l35 -23 0 -157 c0 -87 -4 -158 -9
-158 -5 0 -52 26 -106 57 -88 51 -99 55 -119 43 -61 -39 -189 -110 -197 -110
-5 0 -9 -3 -9 -7 0 -5 -10 -13 -23 -19 -32 -15 -138 -74 -167 -93 -14 -9 -36
-22 -50 -29 l-25 -13 0 -284 c1 -322 -8 -289 90 -340 83 -44 108 -60 107 -69
0 -5 -20 -21 -45 -35 -25 -14 -76 -44 -114 -65 -37 -22 -77 -45 -88 -52 -17
-11 -29 -7 -85 26 -36 21 -98 57 -137 79 -40 23 -73 43 -73 45 0 2 44 30 98
61 53 32 99 61 102 65 3 5 5 135 5 289 l-1 281 -39 21 c-22 12 -123 70 -225
129 -102 59 -195 112 -208 119 -20 11 -32 7 -105 -35 -45 -26 -92 -54 -104
-62 l-23 -14 0 164 0 164 133 77 c72 42 137 77 142 77 6 0 9 -44 8 -117z m59
-479 c73 -42 137 -79 141 -81 9 -5 -9 -18 -93 -65 -25 -14 -74 -42 -108 -62
-35 -20 -69 -36 -75 -36 -7 1 -37 16 -67 35 -30 18 -78 46 -106 61 -63 33
-102 64 -89 70 6 2 66 38 135 78 69 41 126 75 127 75 1 1 62 -33 135 -75z
m1154 -14 c2 0 31 -17 63 -37 l59 -37 -44 -28 c-25 -15 -46 -28 -48 -28 -2 0
-42 -22 -90 -50 -48 -27 -92 -50 -97 -50 -8 0 -261 142 -277 155 -3 2 97 65
104 65 2 0 21 11 42 23 20 13 59 36 85 50 l49 25 75 -44 c41 -24 77 -44 79
-44z m-1495 -278 l134 -78 3 -162 c1 -89 -1 -162 -5 -161 -5 0 -66 35 -138 78
l-130 77 -3 162 c-1 89 -1 162 2 162 2 0 64 -35 137 -78z m559 -85 l0 -163
-32 -17 c-18 -9 -60 -33 -93 -52 -33 -20 -81 -47 -107 -60 l-47 -25 2 162 2
161 73 44 c41 24 78 43 83 43 5 0 9 5 9 10 0 6 6 10 13 11 6 0 28 11 47 24 19
13 38 24 43 24 4 1 7 -72 7 -162z m555 93 c22 -13 51 -30 65 -37 14 -8 39 -22
55 -32 l30 -18 1 -161 c0 -89 -1 -162 -2 -162 -2 0 -18 8 -36 19 -83 47 -233
135 -237 138 -3 2 -5 265 -2 311 1 10 13 7 44 -11 23 -14 60 -35 82 -47z m577
-67 c-1 -194 0 -187 -21 -198 -19 -10 -111 -61 -213 -120 l-48 -27 0 164 1
163 137 77 c75 42 138 75 140 73 3 -2 4 -62 4 -132z"/>
</g>
</svg>
